STARTFONT 2.1
COMMENT $XConsortium: lutBS10.bdf,v 1.8 94/04/02 16:25:37 gildea Exp $
FONT -B&H-LucidaTypewriter-Bold-R-Normal-Sans-14-100-100-100-M-80-ISO8859-1
SIZE 10 100 100
FONTBOUNDINGBOX 9 16 4 -3
STARTPROPERTIES 20
FONTNAME_REGISTRY ""
FOUNDRY "B&H"
FAMILY_NAME "LucidaTypewriter"
WEIGHT_NAME "Bold"
SLANT "R"
SETWIDTH_NAME "Normal"
ADD_STYLE_NAME "Sans"
PIXEL_SIZE 14
POINT_SIZE 100
RESOLUTION_X 100
RESOLUTION_Y 100
SPACING "M"
AVERAGE_WIDTH 80
CHARSET_REGISTRY "ISO8859"
CHARSET_ENCODING "1"
FONT_ASCENT 13
FONT_DESCENT 3
DEFAULT_CHAR 0
COPYRIGHT "Copyright Bigelow & Holmes 1986, 1985."
FACE_NAME "Lucida Sans Typewriter Bold"
ENDPROPERTIES
CHARS 190
STARTCHAR space
ENCODING 32
SWIDTH 602 0
DWIDTH 8 0
BBX 1 1 0 0
BITMAP
00
ENDCHAR
STARTCHAR exclam
ENCODING 33
SWIDTH 602 0
DWIDTH 8 0
BBX 2 10 3 0
BITMAP
c0
c0
c0
c0
c0
80
80
00
00
c0
ENDCHAR
STARTCHAR quotedbl
ENCODING 34
SWIDTH 602 0
DWIDTH 8 0
BBX 5 4 2 6
BITMAP
88
88
88
88
ENDCHAR
STARTCHAR numbersign
ENCODING 35
SWIDTH 602 0
DWIDTH 8 0
BBX 7 10 1 0
BITMAP
14
14
24
7e
28
28
fc
58
50
50
ENDCHAR
STARTCHAR dollar
ENCODING 36
SWIDTH 602 0
DWIDTH 8 0
BBX 6 13 1 -2
BITMAP
10
3c
44
c0
e0
70
38
1c
0c
8c
f8
10
10
ENDCHAR
STARTCHAR percent
ENCODING 37
SWIDTH 602 0
DWIDTH 8 0
BBX 9 10 0 0
BITMAP
6180
9300
9200
9400
6800
0b00
1480
2480
6480
c300
ENDCHAR
STARTCHAR ampersand
ENCODING 38
SWIDTH 602 0
DWIDTH 8 0
BBX 8 10 0 0
BITMAP
38
6c
6c
7c
33
fb
db
de
ce
7f
ENDCHAR
STARTCHAR quoteright
ENCODING 39
SWIDTH 602 0
DWIDTH 8 0
BBX 2 4 3 6
BITMAP
c0
c0
40
c0
ENDCHAR
STARTCHAR parenleft
ENCODING 40
SWIDTH 602 0
DWIDTH 8 0
BBX 6 13 2 -3
BITMAP
1c
38
60
e0
c0
c0
c0
c0
c0
60
70
3c
0c
ENDCHAR
STARTCHAR parenright
ENCODING 41
SWIDTH 602 0
DWIDTH 8 0
BBX 6 13 1 -3
BITMAP
c0
f0
38
18
0c
0c
0c
0c
0c
18
18
70
c0
ENDCHAR
STARTCHAR asterisk
ENCODING 42
SWIDTH 602 0
DWIDTH 8 0
BBX 6 6 1 4
BITMAP
30
94
cc
28
78
48
ENDCHAR
STARTCHAR plus
ENCODING 43
SWIDTH 602 0
DWIDTH 8 0
BBX 7 7 1 0
BITMAP
10
10
10
fe
10
10
10
ENDCHAR
STARTCHAR comma
ENCODING 44
SWIDTH 602 0
DWIDTH 8 0
BBX 2 5 3 -3
BITMAP
c0
c0
40
40
c0
ENDCHAR
STARTCHAR minus
ENCODING 45
SWIDTH 602 0
DWIDTH 8 0
BBX 7 1 1 3
BITMAP
fe
ENDCHAR
STARTCHAR period
ENCODING 46
SWIDTH 602 0
DWIDTH 8 0
BBX 2 2 3 0
BITMAP
c0
c0
ENDCHAR
STARTCHAR slash
ENCODING 47
SWIDTH 602 0
DWIDTH 8 0
BBX 8 13 0 -3
BITMAP
03
02
06
04
0c
08
18
10
30
20
60
40
c0
ENDCHAR
STARTCHAR zero
ENCODING 48
SWIDTH 602 0
DWIDTH 8 0
BBX 7 10 1 0
BITMAP
38
44
c6
c6
c6
c6
c6
c6
44
38
ENDCHAR
STARTCHAR one
ENCODING 49
SWIDTH 602 0
DWIDTH 8 0
BBX 6 10 2 0
BITMAP
f0
30
30
30
30
30
30
30
30
fc
ENDCHAR
STARTCHAR two
ENCODING 50
SWIDTH 602 0
DWIDTH 8 0
BBX 6 10 1 0
BITMAP
f8
8c
0c
0c
08
10
20
60
c0
fc
ENDCHAR
STARTCHAR three
ENCODING 51
SWIDTH 602 0
DWIDTH 8 0
BBX 6 10 1 0
BITMAP
f8
0c
0c
1c
70
18
0c
0c
1c
f8
ENDCHAR
STARTCHAR four
ENCODING 52
SWIDTH 602 0
DWIDTH 8 0
BBX 7 10 1 0
BITMAP
0c
1c
3c
2c
4c
fe
fe
0c
0c
0c
ENDCHAR
STARTCHAR five
ENCODING 53
SWIDTH 602 0
DWIDTH 8 0
BBX 5 10 2 0
BITMAP
f8
80
80
e0
30
18
18
18
b8
f0
ENDCHAR
STARTCHAR six
ENCODING 54
SWIDTH 602 0
DWIDTH 8 0
BBX 7 10 1 0
BITMAP
1e
60
40
dc
ee
c6
c6
c6
6c
38
ENDCHAR
STARTCHAR seven
ENCODING 55
SWIDTH 602 0
DWIDTH 8 0
BBX 6 10 2 0
BITMAP
fc
0c
08
10
30
20
60
60
c0
c0
ENDCHAR
STARTCHAR eight
ENCODING 56
SWIDTH 602 0
DWIDTH 8 0
BBX 7 10 1 0
BITMAP
38
6c
6c
7c
38
7c
ce
c6
c6
7c
ENDCHAR
STARTCHAR nine
ENCODING 57
SWIDTH 602 0
DWIDTH 8 0
BBX 7 10 1 0
BITMAP
38
6c
c6
c6
c6
ee
76
04
0c
f0
ENDCHAR
STARTCHAR colon
ENCODING 58
SWIDTH 602 0
DWIDTH 8 0
BBX 2 7 3 0
BITMAP
c0
c0
00
00
00
c0
c0
ENDCHAR
STARTCHAR semicolon
ENCODING 59
SWIDTH 602 0
DWIDTH 8 0
BBX 2 10 3 -3
BITMAP
c0
c0
00
00
00
c0
c0
40
40
c0
ENDCHAR
STARTCHAR less
ENCODING 60
SWIDTH 602 0
DWIDTH 8 0
BBX 6 7 0 0
BITMAP
04
1c
70
c0
70
1c
04
ENDCHAR
STARTCHAR equal
ENCODING 61
SWIDTH 602 0
DWIDTH 8 0
BBX 7 5 1 1
BITMAP
fe
00
00
00
fe
ENDCHAR
STARTCHAR greater
ENCODING 62
SWIDTH 602 0
DWIDTH 8 0
BBX 6 7 1 0
BITMAP
80
e0
38
0c
38
e0
80
ENDCHAR
STARTCHAR question
ENCODING 63
SWIDTH 602 0
DWIDTH 8 0
BBX 7 10 1 0
BITMAP
fc
86
86
0c
18
20
60
00
00
60
ENDCHAR
STARTCHAR at
ENCODING 64
SWIDTH 602 0
DWIDTH 8 0
BBX 8 10 0 0
BITMAP
3c
62
5e
b2
a2
a6
a6
9b
44
3c
ENDCHAR
STARTCHAR A
ENCODING 65
SWIDTH 602 0
DWIDTH 8 0
BBX 8 10 0 0
BITMAP
18
1c
1c
2c
2e
26
7e
46
47
83
ENDCHAR
STARTCHAR B
ENCODING 66
SWIDTH 602 0
DWIDTH 8 0
BBX 7 10 1 0
BITMAP
fc
c6
c6
ce
f8
cc
c6
c6
ce
fc
ENDCHAR
STARTCHAR C
ENCODING 67
SWIDTH 602 0
DWIDTH 8 0
BBX 8 10 0 0
BITMAP
1f
71
60
c0
c0
c0
c0
60
71
1f
ENDCHAR
STARTCHAR D
ENCODING 68
SWIDTH 602 0
DWIDTH 8 0
BBX 8 10 0 0
BITMAP
fc
c6
c3
c3
c3
c3
c3
c2
c6
fc
ENDCHAR
STARTCHAR E
ENCODING 69
SWIDTH 602 0
DWIDTH 8 0
BBX 7 10 1 0
BITMAP
fe
c0
c0
c0
fc
c0
c0
c0
c0
fe
ENDCHAR
STARTCHAR F
ENCODING 70
SWIDTH 602 0
DWIDTH 8 0
BBX 7 10 1 0
BITMAP
fe
c0
c0
c0
fc
c0
c0
c0
c0
c0
ENDCHAR
STARTCHAR G
ENCODING 71
SWIDTH 602 0
DWIDTH 8 0
BBX 8 10 0 0
BITMAP
1f
71
60
c0
c0
c3
c3
63
73
1f
ENDCHAR
STARTCHAR H
ENCODING 72
SWIDTH 602 0
DWIDTH 8 0
BBX 7 10 1 0
BITMAP
c6
c6
c6
c6
fe
c6
c6
c6
c6
c6
ENDCHAR
STARTCHAR I
ENCODING 73
SWIDTH 602 0
DWIDTH 8 0
BBX 6 10 1 0
BITMAP
fc
30
30
30
30
30
30
30
30
fc
ENDCHAR
STARTCHAR J
ENCODING 74
SWIDTH 602 0
DWIDTH 8 0
BBX 6 10 1 0
BITMAP
7c
0c
0c
0c
0c
0c
0c
0c
0c
f8
ENDCHAR
STARTCHAR K
ENCODING 75
SWIDTH 602 0
DWIDTH 8 0
BBX 7 10 1 0
BITMAP
c6
cc
c8
d0
f0
f0
d8
dc
cc
ce
ENDCHAR
STARTCHAR L
ENCODING 76
SWIDTH 602 0
DWIDTH 8 0
BBX 7 10 1 0
BITMAP
c0
c0
c0
c0
c0
c0
c0
c0
c0
fe
ENDCHAR
STARTCHAR M
ENCODING 77
SWIDTH 602 0
DWIDTH 8 0
BBX 8 10 0 0
BITMAP
c7
c7
e7
a7
a7
ab
ab
9b
9b
83
ENDCHAR
STARTCHAR N
ENCODING 78
SWIDTH 602 0
DWIDTH 8 0
BBX 7 10 1 0
BITMAP
c2
e2
e2
b2
b2
9a
9e
8e
8e
86
ENDCHAR
STARTCHAR O
ENCODING 79
SWIDTH 602 0
DWIDTH 8 0
BBX 8 10 0 0
BITMAP
3c
66
c3
c3
c3
c3
c3
c3
66
3c
ENDCHAR
STARTCHAR P
ENCODING 80
SWIDTH 602 0
DWIDTH 8 0
BBX 7 10 1 0
BITMAP
fc
c6
c6
c6
ce
fc
c0
c0
c0
c0
ENDCHAR
STARTCHAR Q
ENCODING 81
SWIDTH 602 0
DWIDTH 8 0
BBX 9 13 0 -3
BITMAP
3c00
6600
c300
c300
c300
c300
c300
c300
6600
3c00
0780
0300
0100
ENDCHAR
STARTCHAR R
ENCODING 82
SWIDTH 602 0
DWIDTH 8 0
BBX 8 10 1 0
BITMAP
fc
c6
c6
ce
fc
d8
cc
cc
c6
c7
ENDCHAR
STARTCHAR S
ENCODING 83
SWIDTH 602 0
DWIDTH 8 0
BBX 7 10 1 0
BITMAP
7c
c4
c0
e0
78
1c
0e
06
8e
f8
ENDCHAR
STARTCHAR T
ENCODING 84
SWIDTH 602 0
DWIDTH 8 0
BBX 8 10 0 0
BITMAP
ff
18
18
18
18
18
18
18
18
18
ENDCHAR
STARTCHAR U
ENCODING 85
SWIDTH 602 0
DWIDTH 8 0
BBX 7 10 1 0
BITMAP
c6
c6
c6
c6
c6
c6
c6
c6
c6
7c
ENDCHAR
STARTCHAR V
ENCODING 86
SWIDTH 602 0
DWIDTH 8 0
BBX 8 10 0 0
BITMAP
c1
c2
62
62
64
34
34
38
38
18
ENDCHAR
STARTCHAR W
ENCODING 87
SWIDTH 602 0
DWIDTH 8 0
BBX 8 10 0 0
BITMAP
c1
c9
d9
df
7f
7e
7e
66
66
66
ENDCHAR
STARTCHAR X
ENCODING 88
SWIDTH 602 0
DWIDTH 8 0
BBX 8 10 0 0
BITMAP
e3
62
74
3c
18
18
2c
2e
46
c7
ENDCHAR
STARTCHAR Y
ENCODING 89
SWIDTH 602 0
DWIDTH 8 0
BBX 8 10 0 0
BITMAP
c3
62
76
34
38
18
18
18
18
18
ENDCHAR
STARTCHAR Z
ENCODING 90
SWIDTH 602 0
DWIDTH 8 0
BBX 7 10 1 0
BITMAP
fe
0e
0c
1c
18
30
70
60
e0
fe
ENDCHAR
STARTCHAR bracketleft
ENCODING 91
SWIDTH 602 0
DWIDTH 8 0
BBX 5 13 3 -3
BITMAP
f8
c0
c0
c0
c0
c0
c0
c0
c0
c0
c0
c0
f8
ENDCHAR
STARTCHAR backslash
ENCODING 92
SWIDTH 602 0
DWIDTH 8 0
BBX 8 13 0 -3
BITMAP
c0
40
20
20
30
10
18
08
0c
04
04
02
03
ENDCHAR
STARTCHAR bracketright
ENCODING 93
SWIDTH 602 0
DWIDTH 8 0
BBX 5 13 1 -3
BITMAP
f8
18
18
18
18
18
18
18
18
18
18
18
f8
ENDCHAR
STARTCHAR asciicircum
ENCODING 94
SWIDTH 602 0
DWIDTH 8 0
BBX 7 7 1 2
BITMAP
10
10
28
28
44
44
c6
ENDCHAR
STARTCHAR underscore
ENCODING 95
SWIDTH 602 0
DWIDTH 8 0
BBX 8 1 0 -2
BITMAP
ff
ENDCHAR
STARTCHAR quoteleft
ENCODING 96
SWIDTH 602 0
DWIDTH 8 0
BBX 2 4 3 6
BITMAP
c0
80
c0
c0
ENDCHAR
STARTCHAR a
ENCODING 97
SWIDTH 602 0
DWIDTH 8 0
BBX 7 7 1 0
BITMAP
78
4c
0c
7c
cc
cc
76
ENDCHAR
STARTCHAR b
ENCODING 98
SWIDTH 602 0
DWIDTH 8 0
BBX 7 10 1 0
BITMAP
c0
c0
c0
dc
fe
e6
c6
c6
cc
fc
ENDCHAR
STARTCHAR c
ENCODING 99
SWIDTH 602 0
DWIDTH 8 0
BBX 7 7 1 0
BITMAP
3e
60
c0
c0
c0
60
3e
ENDCHAR
STARTCHAR d
ENCODING 100
SWIDTH 602 0
DWIDTH 8 0
BBX 7 10 1 0
BITMAP
06
06
06
7e
66
c6
c6
ce
fe
76
ENDCHAR
STARTCHAR e
ENCODING 101
SWIDTH 602 0
DWIDTH 8 0
BBX 7 7 1 0
BITMAP
3c
66
c6
fe
c0
62
3e
ENDCHAR
STARTCHAR f
ENCODING 102
SWIDTH 602 0
DWIDTH 8 0
BBX 7 10 1 0
BITMAP
3e
60
60
fc
60
60
60
60
60
60
ENDCHAR
STARTCHAR g
ENCODING 103
SWIDTH 602 0
DWIDTH 8 0
BBX 7 10 1 -3
BITMAP
7e
e6
c6
c6
ce
fe
76
06
4c
78
ENDCHAR
STARTCHAR h
ENCODING 104
SWIDTH 602 0
DWIDTH 8 0
BBX 7 10 1 0
BITMAP
c0
c0
c0
dc
fe
e6
c6
c6
c6
c6
ENDCHAR
STARTCHAR i
ENCODING 105
SWIDTH 602 0
DWIDTH 8 0
BBX 5 10 1 0
BITMAP
18
18
00
f8
18
18
18
18
18
18
ENDCHAR
STARTCHAR j
ENCODING 106
SWIDTH 602 0
DWIDTH 8 0
BBX 5 13 1 -3
BITMAP
18
18
00
78
18
18
18
18
18
18
18
98
f0
ENDCHAR
STARTCHAR k
ENCODING 107
SWIDTH 602 0
DWIDTH 8 0
BBX 7 10 1 0
BITMAP
c0
c0
c0
cc
c8
d0
f8
d8
dc
ce
ENDCHAR
STARTCHAR l
ENCODING 108
SWIDTH 602 0
DWIDTH 8 0
BBX 5 10 1 0
BITMAP
f8
18
18
18
18
18
18
18
18
18
ENDCHAR
STARTCHAR m
ENCODING 109
SWIDTH 602 0
DWIDTH 8 0
BBX 8 7 0 0
BITMAP
df
ff
db
db
db
db
db
ENDCHAR
STARTCHAR n
ENCODING 110
SWIDTH 602 0
DWIDTH 8 0
BBX 7 7 1 0
BITMAP
dc
fe
e6
c6
c6
c6
c6
ENDCHAR
STARTCHAR o
ENCODING 111
SWIDTH 602 0
DWIDTH 8 0
BBX 8 7 0 0
BITMAP
3c
66
c3
c3
c3
66
3c
ENDCHAR
STARTCHAR p
ENCODING 112
SWIDTH 602 0
DWIDTH 8 0
BBX 7 10 1 -3
BITMAP
dc
fe
e6
c6
c6
cc
fc
c0
c0
c0
ENDCHAR
STARTCHAR q
ENCODING 113
SWIDTH 602 0
DWIDTH 8 0
BBX 7 10 1 -3
BITMAP
7e
66
c6
c6
ce
fe
76
06
06
06
ENDCHAR
STARTCHAR r
ENCODING 114
SWIDTH 602 0
DWIDTH 8 0
BBX 6 7 2 0
BITMAP
dc
fc
e4
c0
c0
c0
c0
ENDCHAR
STARTCHAR s
ENCODING 115
SWIDTH 602 0
DWIDTH 8 0
BBX 6 7 1 0
BITMAP
7c
c0
e0
7c
1c
8c
f8
ENDCHAR
STARTCHAR t
ENCODING 116
SWIDTH 602 0
DWIDTH 8 0
BBX 7 9 1 0
BITMAP
30
30
fe
30
30
30
30
30
1e
ENDCHAR
STARTCHAR u
ENCODING 117
SWIDTH 602 0
DWIDTH 8 0
BBX 7 7 1 0
BITMAP
c6
c6
c6
c6
ce
fe
76
ENDCHAR
STARTCHAR v
ENCODING 118
SWIDTH 602 0
DWIDTH 8 0
BBX 8 7 0 0
BITMAP
c3
62
62
74
34
38
18
ENDCHAR
STARTCHAR w
ENCODING 119
SWIDTH 602 0
DWIDTH 8 0
BBX 8 7 0 0
BITMAP
c1
d9
df
7e
7e
66
66
ENDCHAR
STARTCHAR x
ENCODING 120
SWIDTH 602 0
DWIDTH 8 0
BBX 8 7 0 0
BITMAP
e2
74
38
18
2c
6e
c7
ENDCHAR
STARTCHAR y
ENCODING 121
SWIDTH 602 0
DWIDTH 8 0
BBX 8 10 0 -3
BITMAP
c3
62
62
34
34
18
18
10
10
e0
ENDCHAR
STARTCHAR z
ENCODING 122
SWIDTH 602 0
DWIDTH 8 0
BBX 7 7 1 0
BITMAP
fe
0e
1c
38
70
e0
fe
ENDCHAR
STARTCHAR braceleft
ENCODING 123
SWIDTH 602 0
DWIDTH 8 0
BBX 7 13 1 -3
BITMAP
1e
18
18
18
18
18
e0
18
18
18
18
18
1e
ENDCHAR
STARTCHAR bar
ENCODING 124
SWIDTH 602 0
DWIDTH 8 0
BBX 1 13 4 -3
BITMAP
80
80
80
80
80
80
80
80
80
80
80
80
80
ENDCHAR
STARTCHAR braceright
ENCODING 125
SWIDTH 602 0
DWIDTH 8 0
BBX 7 13 0 -3
BITMAP
f0
30
30
30
30
30
0e
30
30
30
30
30
f0
ENDCHAR
STARTCHAR asciitilde
ENCODING 126
SWIDTH 602 0
DWIDTH 8 0
BBX 7 3 1 2
BITMAP
62
92
8c
ENDCHAR
STARTCHAR exclamdown
ENCODING 161
SWIDTH 602 0
DWIDTH 8 0
BBX 2 10 3 -3
BITMAP
c0
c0
00
80
80
c0
c0
c0
c0
c0
ENDCHAR
STARTCHAR cent
ENCODING 162
SWIDTH 602 0
DWIDTH 8 0
BBX 7 10 1 0
BITMAP
08
1e
62
c0
c0
c0
c0
62
3e
08
ENDCHAR
STARTCHAR sterling
ENCODING 163
SWIDTH 602 0
DWIDTH 8 0
BBX 6 10 1 0
BITMAP
3c
60
60
60
f8
60
60
60
40
fc
ENDCHAR
STARTCHAR currency
ENCODING 164
SWIDTH 602 0
DWIDTH 8 0
BBX 8 8 0 1
BITMAP
42
ff
66
42
42
66
ff
42
ENDCHAR
STARTCHAR yen
ENCODING 165
SWIDTH 602 0
DWIDTH 8 0
BBX 8 10 0 0
BITMAP
e3
76
3c
38
7e
18
7e
18
18
18
ENDCHAR
STARTCHAR brokenbar
ENCODING 166
SWIDTH 602 0
DWIDTH 8 0
BBX 1 13 4 -3
BITMAP
80
80
80
80
80
00
00
00
80
80
80
80
80
ENDCHAR
STARTCHAR section
ENCODING 167
SWIDTH 602 0
DWIDTH 8 0
BBX 6 13 1 -3
BITMAP
78
c0
c0
e0
78
8c
84
e4
78
3c
0c
0c
f8
ENDCHAR
STARTCHAR dieresis
ENCODING 168
SWIDTH 602 0
DWIDTH 8 0
BBX 4 1 2 9
BITMAP
f0
ENDCHAR
STARTCHAR copyright
ENCODING 169
SWIDTH 602 0
DWIDTH 8 0
BBX 8 10 0 0
BITMAP
3c
42
9d
a1
a1
a1
a1
9d
42
3c
ENDCHAR
STARTCHAR ordfeminine
ENCODING 170
SWIDTH 602 0
DWIDTH 8 0
BBX 6 5 1 5
BITMAP
f8
08
f8
88
fc
ENDCHAR
STARTCHAR guillemotleft
ENCODING 171
SWIDTH 602 0
DWIDTH 8 0
BBX 8 7 0 0
BITMAP
11
32
26
ec
66
37
12
ENDCHAR
STARTCHAR logicalnot
ENCODING 172
SWIDTH 602 0
DWIDTH 8 0
BBX 7 4 1 1
BITMAP
fe
02
02
02
ENDCHAR
STARTCHAR hyphen
ENCODING 173
SWIDTH 602 0
DWIDTH 8 0
BBX 6 1 1 4
BITMAP
fc
ENDCHAR
STARTCHAR registered
ENCODING 174
SWIDTH 602 0
DWIDTH 8 0
BBX 7 7 1 3
BITMAP
38
44
ba
ba
b2
6c
38
ENDCHAR
STARTCHAR macron
ENCODING 175
SWIDTH 602 0
DWIDTH 8 0
BBX 4 1 2 9
BITMAP
f0
ENDCHAR
STARTCHAR degree
ENCODING 176
SWIDTH 602 0
DWIDTH 8 0
BBX 3 2 4 8
BITMAP
e0
60
ENDCHAR
STARTCHAR plusminus
ENCODING 177
SWIDTH 602 0
DWIDTH 8 0
BBX 7 7 1 0
BITMAP
10
10
fe
10
10
00
fe
ENDCHAR
STARTCHAR twosuperior
ENCODING 178
SWIDTH 602 0
DWIDTH 8 0
BBX 3 5 -1 5
BITMAP
e0
20
60
c0
e0
ENDCHAR
STARTCHAR threesuperior
ENCODING 179
SWIDTH 602 0
DWIDTH 8 0
BBX 3 5 -1 5
BITMAP
e0
20
c0
20
e0
ENDCHAR
STARTCHAR acute
ENCODING 180
SWIDTH 602 0
DWIDTH 8 0
BBX 3 2 3 8
BITMAP
60
c0
ENDCHAR
STARTCHAR mu
ENCODING 181
SWIDTH 602 0
DWIDTH 8 0
BBX 7 10 1 -3
BITMAP
c6
c6
c6
c6
ce
fe
fe
c0
c0
c0
ENDCHAR
STARTCHAR paragraph
ENCODING 182
SWIDTH 602 0
DWIDTH 8 0
BBX 6 13 1 -3
BITMAP
7c
f4
f4
f4
74
14
14
14
14
14
14
14
14
ENDCHAR
STARTCHAR periodcentered
ENCODING 183
SWIDTH 602 0
DWIDTH 8 0
BBX 2 2 3 2
BITMAP
c0
c0
ENDCHAR
STARTCHAR cedilla
ENCODING 184
SWIDTH 602 0
DWIDTH 8 0
BBX 3 3 3 -3
BITMAP
c0
60
e0
ENDCHAR
STARTCHAR onesuperior
ENCODING 185
SWIDTH 602 0
DWIDTH 8 0
BBX 3 5 -1 5
BITMAP
c0
40
40
40
e0
ENDCHAR
STARTCHAR ordmasculine
ENCODING 186
SWIDTH 602 0
DWIDTH 8 0
BBX 6 5 1 5
BITMAP
78
cc
84
cc
78
ENDCHAR
STARTCHAR guillemotright
ENCODING 187
SWIDTH 602 0
DWIDTH 8 0
BBX 8 7 0 0
BITMAP
48
ec
66
37
64
4c
88
ENDCHAR
STARTCHAR onequarter
ENCODING 188
SWIDTH 602 0
DWIDTH 8 0
BBX 8 10 2 0
BITMAP
c3
42
44
4c
e8
16
36
2a
4f
c2
ENDCHAR
STARTCHAR onehalf
ENCODING 189
SWIDTH 602 0
DWIDTH 8 0
BBX 8 10 2 0
BITMAP
c3
42
44
4c
e8
17
31
23
46
c7
ENDCHAR
STARTCHAR threequarters
ENCODING 190
SWIDTH 602 0
DWIDTH 8 0
BBX 8 10 2 0
BITMAP
e3
22
c4
2c
e8
16
36
2a
4f
c2
ENDCHAR
STARTCHAR questiondown
ENCODING 191
SWIDTH 602 0
DWIDTH 8 0
BBX 7 10 0 -3
BITMAP
0c
0c
00
0c
08
30
60
c2
c2
7e
ENDCHAR
STARTCHAR Agrave
ENCODING 192
SWIDTH 602 0
DWIDTH 8 0
BBX 8 13 0 0
BITMAP
18
0c
00
18
1c
1c
2c
2e
26
7e
46
47
83
ENDCHAR
STARTCHAR Aacute
ENCODING 193
SWIDTH 602 0
DWIDTH 8 0
BBX 8 13 0 0
BITMAP
0c
18
00
18
1c
1c
2c
2e
26
7e
46
47
83
ENDCHAR
STARTCHAR Acircumflex
ENCODING 194
SWIDTH 602 0
DWIDTH 8 0
BBX 8 13 0 0
BITMAP
18
3c
00
18
1c
1c
2c
2e
26
7e
46
47
83
ENDCHAR
STARTCHAR Atilde
ENCODING 195
SWIDTH 602 0
DWIDTH 8 0
BBX 8 13 0 0
BITMAP
3c
3c
00
18
1c
1c
2c
2e
26
7e
46
47
83
ENDCHAR
STARTCHAR Adieresis
ENCODING 196
SWIDTH 602 0
DWIDTH 8 0
BBX 8 12 0 0
BITMAP
3c
00
18
1c
1c
2c
2e
26
7e
46
47
83
ENDCHAR
STARTCHAR Aring
ENCODING 197
SWIDTH 602 0
DWIDTH 8 0
BBX 8 13 0 0
BITMAP
18
18
10
18
1c
1c
2c
2e
26
7e
46
47
83
ENDCHAR
STARTCHAR AE
ENCODING 198
SWIDTH 602 0
DWIDTH 8 0
BBX 8 10 0 0
BITMAP
0f
1c
1c
1c
2f
2c
6c
7c
4c
8f
ENDCHAR
STARTCHAR Ccedilla
ENCODING 199
SWIDTH 602 0
DWIDTH 8 0
BBX 8 13 0 -3
BITMAP
1f
71
60
c0
c0
c0
c0
60
71
1f
08
0c
1c
ENDCHAR
STARTCHAR Egrave
ENCODING 200
SWIDTH 602 0
DWIDTH 8 0
BBX 7 13 1 0
BITMAP
30
18
00
fe
c0
c0
c0
fc
c0
c0
c0
c0
fe
ENDCHAR
STARTCHAR Eacute
ENCODING 201
SWIDTH 602 0
DWIDTH 8 0
BBX 7 13 1 0
BITMAP
18
30
00
fe
c0
c0
c0
fc
c0
c0
c0
c0
fe
ENDCHAR
STARTCHAR Ecircumflex
ENCODING 202
SWIDTH 602 0
DWIDTH 8 0
BBX 7 13 1 0
BITMAP
18
3c
00
fe
c0
c0
c0
fc
c0
c0
c0
c0
fe
ENDCHAR
STARTCHAR Edieresis
ENCODING 203
SWIDTH 602 0
DWIDTH 8 0
BBX 7 12 1 0
BITMAP
78
00
fe
c0
c0
c0
fc
c0
c0
c0
c0
fe
ENDCHAR
STARTCHAR Igrave
ENCODING 204
SWIDTH 602 0
DWIDTH 8 0
BBX 6 13 1 0
BITMAP
30
18
00
fc
30
30
30
30
30
30
30
30
fc
ENDCHAR
STARTCHAR Iacute
ENCODING 205
SWIDTH 602 0
DWIDTH 8 0
BBX 6 13 1 0
BITMAP
18
30
00
fc
30
30
30
30
30
30
30
30
fc
ENDCHAR
STARTCHAR Icircumflex
ENCODING 206
SWIDTH 602 0
DWIDTH 8 0
BBX 6 13 1 0
BITMAP
30
78
00
fc
30
30
30
30
30
30
30
30
fc
ENDCHAR
STARTCHAR Idieresis
ENCODING 207
SWIDTH 602 0
DWIDTH 8 0
BBX 6 12 1 0
BITMAP
78
00
fc
30
30
30
30
30
30
30
30
fc
ENDCHAR
STARTCHAR Eth
ENCODING 208
SWIDTH 602 0
DWIDTH 8 0
BBX 9 10 0 0
BITMAP
7e00
6300
6180
6180
f980
6180
6180
6100
6300
7e00
ENDCHAR
STARTCHAR Ntilde
ENCODING 209
SWIDTH 602 0
DWIDTH 8 0
BBX 7 13 1 0
BITMAP
3c
3c
00
c2
e2
e2
b2
b2
9a
9e
8e
8e
86
ENDCHAR
STARTCHAR Ograve
ENCODING 210
SWIDTH 602 0
DWIDTH 8 0
BBX 8 13 0 0
BITMAP
18
0c
00
3c
66
c3
c3
c3
c3
c3
c3
66
3c
ENDCHAR
STARTCHAR Oacute
ENCODING 211
SWIDTH 602 0
DWIDTH 8 0
BBX 8 13 0 0
BITMAP
18
30
00
3c
66
c3
c3
c3
c3
c3
c3
66
3c
ENDCHAR
STARTCHAR Ocircumflex
ENCODING 212
SWIDTH 602 0
DWIDTH 8 0
BBX 8 13 0 0
BITMAP
18
3c
00
3c
66
c3
c3
c3
c3
c3
c3
66
3c
ENDCHAR
STARTCHAR Otilde
ENCODING 213
SWIDTH 602 0
DWIDTH 8 0
BBX 8 13 0 0
BITMAP
3c
3c
00
3c
66
c3
c3
c3
c3
c3
c3
66
3c
ENDCHAR
STARTCHAR Odieresis
ENCODING 214
SWIDTH 602 0
DWIDTH 8 0
BBX 8 12 0 0
BITMAP
3c
00
3c
66
c3
c3
c3
c3
c3
c3
66
3c
ENDCHAR
STARTCHAR multiply
ENCODING 215
SWIDTH 602 0
DWIDTH 8 0
BBX 7 7 1 0
BITMAP
c2
44
28
10
28
c4
86
ENDCHAR
STARTCHAR Oslash
ENCODING 216
SWIDTH 602 0
DWIDTH 8 0
BBX 8 10 0 0
BITMAP
3f
66
c7
cf
cb
d3
f3
e3
66
fc
ENDCHAR
STARTCHAR Ugrave
ENCODING 217
SWIDTH 602 0
DWIDTH 8 0
BBX 7 13 1 0
BITMAP
30
18
00
c6
c6
c6
c6
c6
c6
c6
c6
c6
7c
ENDCHAR
STARTCHAR Uacute
ENCODING 218
SWIDTH 602 0
DWIDTH 8 0
BBX 7 13 1 0
BITMAP
18
30
00
c6
c6
c6
c6
c6
c6
c6
c6
c6
7c
ENDCHAR
STARTCHAR Ucircumflex
ENCODING 219
SWIDTH 602 0
DWIDTH 8 0
BBX 7 13 1 0
BITMAP
30
78
00
c6
c6
c6
c6
c6
c6
c6
c6
c6
7c
ENDCHAR
STARTCHAR Udieresis
ENCODING 220
SWIDTH 602 0
DWIDTH 8 0
BBX 7 12 1 0
BITMAP
78
00
c6
c6
c6
c6
c6
c6
c6
c6
c6
7c
ENDCHAR
STARTCHAR Yacute
ENCODING 221
SWIDTH 602 0
DWIDTH 8 0
BBX 8 13 0 0
BITMAP
18
30
00
c3
62
76
34
38
18
18
18
18
18
ENDCHAR
STARTCHAR Thorn
ENCODING 222
SWIDTH 602 0
DWIDTH 8 0
BBX 7 10 1 0
BITMAP
c0
c0
fc
c6
c6
c6
ce
fc
c0
c0
ENDCHAR
STARTCHAR germandbls
ENCODING 223
SWIDTH 602 0
DWIDTH 8 0
BBX 7 10 1 0
BITMAP
78
cc
cc
d8
d8
dc
ce
c6
d6
dc
ENDCHAR
STARTCHAR agrave
ENCODING 224
SWIDTH 602 0
DWIDTH 8 0
BBX 7 10 1 0
BITMAP
30
18
00
78
4c
0c
7c
cc
cc
76
ENDCHAR
STARTCHAR aacute
ENCODING 225
SWIDTH 602 0
DWIDTH 8 0
BBX 7 10 1 0
BITMAP
18
30
00
78
4c
0c
7c
cc
cc
76
ENDCHAR
STARTCHAR acircumflex
ENCODING 226
SWIDTH 602 0
DWIDTH 8 0
BBX 7 10 1 0
BITMAP
30
78
00
78
4c
0c
7c
cc
cc
76
ENDCHAR
STARTCHAR atilde
ENCODING 227
SWIDTH 602 0
DWIDTH 8 0
BBX 7 10 1 0
BITMAP
78
78
00
78
4c
0c
7c
cc
cc
76
ENDCHAR
STARTCHAR adieresis
ENCODING 228
SWIDTH 602 0
DWIDTH 8 0
BBX 7 9 1 0
BITMAP
78
00
78
4c
0c
7c
cc
cc
76
ENDCHAR
STARTCHAR aring
ENCODING 229
SWIDTH 602 0
DWIDTH 8 0
BBX 7 11 1 0
BITMAP
10
30
30
00
78
4c
0c
7c
cc
cc
76
ENDCHAR
STARTCHAR ae
ENCODING 230
SWIDTH 602 0
DWIDTH 8 0
BBX 7 7 1 0
BITMAP
7c
16
16
7e
d0
d0
6e
ENDCHAR
STARTCHAR ccedilla
ENCODING 231
SWIDTH 602 0
DWIDTH 8 0
BBX 7 10 1 -3
BITMAP
3e
60
c0
c0
c0
60
3e
10
18
38
ENDCHAR
STARTCHAR egrave
ENCODING 232
SWIDTH 602 0
DWIDTH 8 0
BBX 7 10 1 0
BITMAP
30
18
00
3c
66
c6
fe
c0
62
3e
ENDCHAR
STARTCHAR eacute
ENCODING 233
SWIDTH 602 0
DWIDTH 8 0
BBX 7 10 1 0
BITMAP
18
30
00
3c
66
c6
fe
c0
62
3e
ENDCHAR
STARTCHAR ecircumflex
ENCODING 234
SWIDTH 602 0
DWIDTH 8 0
BBX 7 10 1 0
BITMAP
30
78
00
3c
66
c6
fe
c0
62
3e
ENDCHAR
STARTCHAR edieresis
ENCODING 235
SWIDTH 602 0
DWIDTH 8 0
BBX 7 9 1 0
BITMAP
78
00
3c
66
c6
fe
c0
62
3e
ENDCHAR
STARTCHAR igrave
ENCODING 236
SWIDTH 602 0
DWIDTH 8 0
BBX 5 10 1 0
BITMAP
30
18
00
f8
18
18
18
18
18
18
ENDCHAR
STARTCHAR iacute
ENCODING 237
SWIDTH 602 0
DWIDTH 8 0
BBX 5 10 1 0
BITMAP
18
30
00
f8
18
18
18
18
18
18
ENDCHAR
STARTCHAR icircumflex
ENCODING 238
SWIDTH 602 0
DWIDTH 8 0
BBX 5 10 1 0
BITMAP
30
78
00
f8
18
18
18
18
18
18
ENDCHAR
STARTCHAR idieresis
ENCODING 239
SWIDTH 602 0
DWIDTH 8 0
BBX 5 9 1 0
BITMAP
78
00
f8
18
18
18
18
18
18
ENDCHAR
STARTCHAR eth
ENCODING 240
SWIDTH 602 0
DWIDTH 8 0
BBX 8 10 0 0
BITMAP
fc
3e
2e
3e
67
c3
c3
c3
66
3c
ENDCHAR
STARTCHAR ntilde
ENCODING 241
SWIDTH 602 0
DWIDTH 8 0
BBX 7 10 1 0
BITMAP
78
78
00
dc
fe
e6
c6
c6
c6
c6
ENDCHAR
STARTCHAR ograve
ENCODING 242
SWIDTH 602 0
DWIDTH 8 0
BBX 8 10 0 0
BITMAP
18
0c
00
3c
66
c3
c3
c3
66
3c
ENDCHAR
STARTCHAR oacute
ENCODING 243
SWIDTH 602 0
DWIDTH 8 0
BBX 8 10 0 0
BITMAP
0c
18
00
3c
66
c3
c3
c3
66
3c
ENDCHAR
STARTCHAR ocircumflex
ENCODING 244
SWIDTH 602 0
DWIDTH 8 0
BBX 8 10 0 0
BITMAP
18
3c
00
3c
66
c3
c3
c3
66
3c
ENDCHAR
STARTCHAR otilde
ENCODING 245
SWIDTH 602 0
DWIDTH 8 0
BBX 8 10 0 0
BITMAP
3c
3c
00
3c
66
c3
c3
c3
66
3c
ENDCHAR
STARTCHAR odieresis
ENCODING 246
SWIDTH 602 0
DWIDTH 8 0
BBX 8 9 0 0
BITMAP
3c
00
3c
66
c3
c3
c3
66
3c
ENDCHAR
STARTCHAR divide
ENCODING 247
SWIDTH 602 0
DWIDTH 8 0
BBX 8 7 0 0
BITMAP
18
18
00
ff
00
18
18
ENDCHAR
STARTCHAR oslash
ENCODING 248
SWIDTH 602 0
DWIDTH 8 0
BBX 8 7 0 0
BITMAP
3f
66
cf
db
f3
66
fc
ENDCHAR
STARTCHAR ugrave
ENCODING 249
SWIDTH 602 0
DWIDTH 8 0
BBX 7 10 1 0
BITMAP
30
18
00
c6
c6
c6
c6
ce
fe
76
ENDCHAR
STARTCHAR uacute
ENCODING 250
SWIDTH 602 0
DWIDTH 8 0
BBX 7 10 1 0
BITMAP
18
30
00
c6
c6
c6
c6
ce
fe
76
ENDCHAR
STARTCHAR ucircumflex
ENCODING 251
SWIDTH 602 0
DWIDTH 8 0
BBX 7 10 1 0
BITMAP
18
3c
00
c6
c6
c6
c6
ce
fe
76
ENDCHAR
STARTCHAR udieresis
ENCODING 252
SWIDTH 602 0
DWIDTH 8 0
BBX 7 9 1 0
BITMAP
3c
00
c6
c6
c6
c6
ce
fe
76
ENDCHAR
STARTCHAR yacute
ENCODING 253
SWIDTH 602 0
DWIDTH 8 0
BBX 8 13 0 -3
BITMAP
18
30
00
c3
62
62
34
34
18
18
10
10
e0
ENDCHAR
STARTCHAR thorn
ENCODING 254
SWIDTH 602 0
DWIDTH 8 0
BBX 7 13 1 -3
BITMAP
c0
c0
c0
dc
fe
e6
c6
c6
cc
fc
c0
c0
c0
ENDCHAR
STARTCHAR ydieresis
ENCODING 255
SWIDTH 602 0
DWIDTH 8 0
BBX 8 12 0 -3
BITMAP
3c
00
c3
62
62
34
34
18
18
10
10
e0
ENDCHAR
ENDFONT
